<svg width="20" height="18" viewBox="0 0 20 18" fill="none" xmlns="http://www.w3.org/2000/svg">
<path d="M19 1H13.6C12.6452 1 11.7295 1.3746 11.0544 2.0414C10.3793 2.70819 10 3.61256 10 4.55556V17C10 16.2928 10.2845 15.6145 10.7908 15.1144C11.2972 14.6143 11.9839 14.3333 12.7 14.3333H19V1Z" stroke="white" stroke-linecap="round" stroke-linejoin="round"/>
<path d="M1 1H6.4C7.35478 1 8.27045 1.3746 8.94558 2.0414C9.62072 2.70819 10 3.61256 10 4.55556V17C10 16.2928 9.71554 15.6145 9.20919 15.1144C8.70284 14.6143 8.01608 14.3333 7.3 14.3333H1V1Z" stroke="white" stroke-linecap="round" stroke-linejoin="round"/>
</svg>
