<svg width="16" height="16" viewBox="0 0 16 16" fill="none" xmlns="http://www.w3.org/2000/svg">
<path d="M14.1112 13V11.8889C14.1109 11.3965 13.947 10.9182 13.6453 10.5291C13.3437 10.1399 12.9213 9.86198 12.4446 9.73889" stroke="#051626" stroke-linecap="square" stroke-linejoin="bevel"/>
<path d="M10.7778 13V11.8889C10.7778 11.2995 10.5437 10.7343 10.1269 10.3175C9.71018 9.90078 9.14495 9.66666 8.55558 9.66666H4.11114C3.52177 9.66666 2.95654 9.90078 2.53979 10.3175C2.12304 10.7343 1.88892 11.2995 1.88892 11.8889V13" stroke="#051626" stroke-linecap="square" stroke-linejoin="bevel"/>
<path d="M10.2223 3.0722C10.7003 3.19459 11.124 3.47259 11.4265 3.86238C11.7291 4.25216 11.8933 4.73155 11.8933 5.22498C11.8933 5.71841 11.7291 6.1978 11.4265 6.58759C11.124 6.97737 10.7003 7.25537 10.2223 7.37776" stroke="#051626" stroke-linecap="square" stroke-linejoin="bevel"/>
<path d="M6.33331 7.44444C7.56061 7.44444 8.55553 6.44952 8.55553 5.22222C8.55553 3.99492 7.56061 3 6.33331 3C5.10601 3 4.11108 3.99492 4.11108 5.22222C4.11108 6.44952 5.10601 7.44444 6.33331 7.44444Z" stroke="#051626" stroke-linecap="square" stroke-linejoin="bevel"/>
</svg>
