<svg width="32" height="32" viewBox="0 0 32 32" fill="none" xmlns="http://www.w3.org/2000/svg">
<path fill-rule="evenodd" clip-rule="evenodd" d="M32 16C32 24.8325 24.8406 32 16 32C7.15941 32 0 24.8325 0 16C0 7.16747 7.15941 0 16 0C24.8406 0 32 7.16747 32 16Z" fill="white"/>
<path d="M17.3717 17.4583L24.5346 13.8395C24.6447 14.1843 24.7037 14.5493 24.7037 14.927C24.7037 17.0537 22.8317 18.7777 20.5226 18.7777C19.2656 18.7777 18.1381 18.2669 17.3717 17.4583Z" fill="black"/>
<path d="M14.5049 17.4583L7.34189 13.8395C7.23187 14.1843 7.17284 14.5493 7.17284 14.927C7.17284 17.0537 9.04479 18.7778 11.354 18.7778C12.611 18.7778 13.7384 18.2669 14.5049 17.4583Z" fill="black"/>
<path fill-rule="evenodd" clip-rule="evenodd" d="M31 16C31 24.2843 24.2843 31 16 31C7.71573 31 1 24.2843 1 16C1 7.71573 7.71573 1 16 1C24.2843 1 31 7.71573 31 16ZM2.29808 15.6755C4.30798 12.1667 9.71608 9.65385 16.0721 9.65385C22.4282 9.65385 27.8362 12.1667 29.8462 15.6755C27.8362 19.1842 22.4282 21.6971 16.0721 21.6971C9.71608 21.6971 4.30798 19.1842 2.29808 15.6755Z" fill="black"/>
</svg>