<?xml version="1.0" encoding="utf-8"?>
<!-- Generator: Adobe Illustrator 24.0.1, SVG Export Plug-In . SVG Version: 6.00 Build 0)  -->
<svg version="1.1" id="Layer_1" xmlns="http://www.w3.org/2000/svg" xmlns:xlink="http://www.w3.org/1999/xlink" x="0px" y="0px"
	 viewBox="0 0 196 48" style="enable-background:new 0 0 196 48;" xml:space="preserve">
<style type="text/css">
	.st0{fill-rule:evenodd;clip-rule:evenodd;fill:#D73F3F;}
</style>
<g>
	<polygon class="st0" points="96.5,0.5 96.5,4.5 92.6,4.5 92.6,0.5 90.4,0.5 90.4,10.3 92.6,10.3 92.6,6.2 96.5,6.2 96.5,10.3 
		98.7,10.3 98.7,0.5 	"/>
	<path class="st0" d="M103.1,10.4c-0.3,0-0.7-0.1-1-0.2c-0.3-0.1-0.6-0.3-0.8-0.5c-0.2-0.2-0.4-0.5-0.5-0.8
		c-0.1-0.3-0.2-0.7-0.2-1.2V3.1h2v4.3c0,0.5,0.1,0.8,0.3,1.1c0.2,0.2,0.5,0.4,0.9,0.4c0.4,0,0.8-0.1,1.1-0.4
		c0.3-0.3,0.4-0.7,0.4-1.2V3.1h2v7.1h-2V9.2c-0.2,0.4-0.5,0.7-0.8,0.9C104.2,10.3,103.7,10.4,103.1,10.4 M109.2,3.1h2v1.1
		c0.2-0.3,0.5-0.6,0.8-0.9c0.4-0.3,0.8-0.4,1.4-0.4c0.5,0,0.9,0.1,1.2,0.3c0.3,0.2,0.6,0.5,0.8,0.9c0.3-0.4,0.7-0.8,1.1-0.9
		c0.4-0.2,0.9-0.3,1.3-0.3c0.3,0,0.6,0.1,0.9,0.2c0.3,0.1,0.5,0.3,0.8,0.5c0.2,0.2,0.4,0.5,0.5,0.9c0.1,0.3,0.2,0.8,0.2,1.2v4.6h-2
		V5.9c0-0.5-0.1-0.8-0.3-1c-0.2-0.2-0.5-0.3-0.8-0.3c-0.4,0-0.7,0.1-1,0.4c-0.3,0.2-0.4,0.6-0.4,1.1v4.2h-2V5.9c0-0.5-0.1-0.8-0.3-1
		s-0.5-0.3-0.8-0.3c-0.4,0-0.7,0.1-1,0.4c-0.3,0.2-0.4,0.6-0.4,1.1v4.2h-2V3.1z M124.5,9.1c0.4,0,0.8-0.1,1.1-0.3
		c0.3-0.2,0.4-0.5,0.4-0.9V7.2h-0.8c-0.6,0-1,0.1-1.3,0.2c-0.3,0.1-0.5,0.4-0.5,0.8c0,0.3,0.1,0.5,0.2,0.6
		C123.9,9,124.2,9.1,124.5,9.1 M123.9,10.4c-0.3,0-0.6,0-0.9-0.1c-0.3-0.1-0.5-0.2-0.8-0.4c-0.2-0.2-0.4-0.4-0.5-0.7
		c-0.1-0.3-0.2-0.6-0.2-1c0-0.4,0.1-0.8,0.3-1.1c0.2-0.3,0.4-0.5,0.8-0.7c0.3-0.2,0.7-0.3,1.2-0.4c0.5-0.1,1-0.1,1.5-0.1h0.8V5.7
		c0-0.4-0.1-0.8-0.2-1s-0.5-0.3-0.9-0.3c-0.4,0-0.7,0.1-0.9,0.3c-0.2,0.2-0.3,0.4-0.3,0.7h-1.9c0-0.4,0.1-0.8,0.3-1.1
		c0.2-0.3,0.4-0.6,0.7-0.8c0.3-0.2,0.6-0.3,1-0.4C124.2,3,124.6,3,125,3c0.4,0,0.8,0,1.2,0.1c0.4,0.1,0.7,0.2,1,0.5
		c0.3,0.2,0.5,0.5,0.6,0.8c0.1,0.3,0.2,0.7,0.2,1.2v4.7h-1.9V9.4c-0.2,0.3-0.5,0.5-0.8,0.7C125,10.3,124.5,10.4,123.9,10.4
		 M129.9,3.1h2v1.1c0.2-0.4,0.5-0.7,0.8-0.9c0.4-0.3,0.9-0.4,1.5-0.4c0.4,0,0.7,0.1,1,0.2c0.3,0.1,0.5,0.3,0.8,0.5
		c0.2,0.2,0.4,0.5,0.5,0.9c0.1,0.4,0.2,0.8,0.2,1.2v4.6h-2V6c0-0.5-0.1-0.9-0.3-1.1c-0.2-0.2-0.5-0.3-1-0.3c-0.4,0-0.8,0.1-1.1,0.4
		s-0.4,0.7-0.4,1.2v4.1h-2V3.1z M138.5,10.3h2V3.1h-2V10.3z M139.5,2.2c-0.3,0-0.6-0.1-0.8-0.3c-0.2-0.2-0.3-0.5-0.3-0.8
		c0-0.3,0.1-0.6,0.3-0.8c0.2-0.2,0.5-0.3,0.8-0.3c0.3,0,0.6,0.1,0.8,0.3c0.2,0.2,0.3,0.5,0.3,0.8c0,0.3-0.1,0.6-0.3,0.8
		C140.1,2.1,139.8,2.2,139.5,2.2z M145.1,10.4c-0.8,0-1.3-0.2-1.7-0.6c-0.4-0.4-0.6-0.9-0.6-1.7V4.5h-0.9V3.1h0.9V1.6h2v1.5h1.5v1.4
		h-1.5V8c0,0.3,0.1,0.5,0.2,0.6c0.1,0.1,0.3,0.2,0.6,0.2c0.1,0,0.3,0,0.4,0c0.1,0,0.2-0.1,0.3-0.1v1.5c-0.1,0-0.3,0.1-0.5,0.1
		C145.6,10.4,145.3,10.4,145.1,10.4 M150.4,9.1c0.4,0,0.8-0.1,1.1-0.3c0.3-0.2,0.4-0.5,0.4-0.9V7.2h-0.8c-0.6,0-1,0.1-1.3,0.2
		c-0.3,0.1-0.5,0.4-0.5,0.8c0,0.3,0.1,0.5,0.2,0.6C149.7,9,150,9.1,150.4,9.1 M149.8,10.4c-0.3,0-0.6,0-0.9-0.1
		c-0.3-0.1-0.5-0.2-0.8-0.4s-0.4-0.4-0.5-0.7c-0.1-0.3-0.2-0.6-0.2-1c0-0.4,0.1-0.8,0.3-1.1c0.2-0.3,0.4-0.5,0.8-0.7
		c0.3-0.2,0.7-0.3,1.2-0.4c0.5-0.1,1-0.1,1.5-0.1h0.8V5.7c0-0.4-0.1-0.8-0.2-1s-0.5-0.3-0.9-0.3c-0.4,0-0.7,0.1-0.9,0.3
		c-0.2,0.2-0.3,0.4-0.3,0.7h-1.9c0-0.4,0.1-0.8,0.3-1.1c0.2-0.3,0.4-0.6,0.7-0.8c0.3-0.2,0.6-0.3,1-0.4C150,3,150.4,3,150.9,3
		c0.4,0,0.8,0,1.2,0.1c0.4,0.1,0.7,0.2,1,0.5c0.3,0.2,0.5,0.5,0.6,0.8c0.1,0.3,0.2,0.7,0.2,1.2v4.7h-1.9V9.4
		c-0.2,0.3-0.5,0.5-0.8,0.7C150.8,10.3,150.3,10.4,149.8,10.4 M155.7,3.1h2v1.4c0.2-0.5,0.5-0.8,0.9-1.1c0.4-0.2,0.8-0.4,1.4-0.4
		v1.8c-0.7,0-1.3,0.1-1.7,0.4c-0.4,0.3-0.6,0.8-0.6,1.4v3.6h-2V3.1z M161.5,10.3h2V3.1h-2V10.3z M162.5,2.2c-0.3,0-0.6-0.1-0.8-0.3
		c-0.2-0.2-0.3-0.5-0.3-0.8c0-0.3,0.1-0.6,0.3-0.8c0.2-0.2,0.5-0.3,0.8-0.3c0.3,0,0.6,0.1,0.8,0.3c0.2,0.2,0.3,0.5,0.3,0.8
		c0,0.3-0.1,0.6-0.3,0.8C163.1,2.1,162.8,2.2,162.5,2.2z M168,9.1c0.4,0,0.8-0.1,1.1-0.3c0.3-0.2,0.4-0.5,0.4-0.9V7.2h-0.8
		c-0.6,0-1,0.1-1.3,0.2c-0.3,0.1-0.5,0.4-0.5,0.8c0,0.3,0.1,0.5,0.2,0.6S167.6,9.1,168,9.1 M167.4,10.4c-0.3,0-0.6,0-0.9-0.1
		c-0.3-0.1-0.5-0.2-0.8-0.4s-0.4-0.4-0.5-0.7c-0.1-0.3-0.2-0.6-0.2-1c0-0.4,0.1-0.8,0.3-1.1c0.2-0.3,0.4-0.5,0.8-0.7
		c0.3-0.2,0.7-0.3,1.2-0.4c0.5-0.1,1-0.1,1.5-0.1h0.8V5.7c0-0.4-0.1-0.8-0.2-1c-0.2-0.2-0.5-0.3-0.9-0.3c-0.4,0-0.7,0.1-0.9,0.3
		c-0.2,0.2-0.3,0.4-0.3,0.7h-1.9c0-0.4,0.1-0.8,0.3-1.1c0.2-0.3,0.4-0.6,0.7-0.8c0.3-0.2,0.6-0.3,1-0.4C167.6,3,168,3,168.5,3
		c0.4,0,0.8,0,1.2,0.1c0.4,0.1,0.7,0.2,1,0.5c0.3,0.2,0.5,0.5,0.6,0.8c0.1,0.3,0.2,0.7,0.2,1.2v4.7h-1.9V9.4
		c-0.2,0.3-0.5,0.5-0.8,0.7C168.4,10.3,168,10.4,167.4,10.4 M173.3,3.1h2v1.1c0.2-0.4,0.5-0.7,0.8-0.9c0.4-0.3,0.9-0.4,1.5-0.4
		c0.4,0,0.7,0.1,1,0.2c0.3,0.1,0.5,0.3,0.8,0.5c0.2,0.2,0.4,0.5,0.5,0.9c0.1,0.4,0.2,0.8,0.2,1.2v4.6h-2V6c0-0.5-0.1-0.9-0.3-1.1
		c-0.2-0.2-0.5-0.3-1-0.3c-0.4,0-0.8,0.1-1.1,0.4c-0.3,0.3-0.4,0.7-0.4,1.2v4.1h-2V3.1z M94.5,27.5c0.4,0,0.8-0.1,1.1-0.2
		c0.3-0.2,0.6-0.4,0.9-0.7c0.2-0.3,0.4-0.6,0.5-1c0.1-0.4,0.2-0.8,0.2-1.3v-0.1c0-0.5-0.1-0.9-0.2-1.3c-0.1-0.4-0.3-0.7-0.5-1
		c-0.2-0.3-0.5-0.5-0.9-0.7c-0.3-0.2-0.7-0.2-1.1-0.2c-0.4,0-0.8,0.1-1.1,0.2c-0.3,0.2-0.6,0.4-0.9,0.6c-0.2,0.3-0.4,0.6-0.5,1
		c-0.1,0.4-0.2,0.8-0.2,1.3v0.1c0,0.5,0.1,0.9,0.2,1.3c0.1,0.4,0.3,0.7,0.6,1c0.2,0.3,0.5,0.5,0.9,0.6
		C93.7,27.4,94.1,27.5,94.5,27.5 M94.4,29.2c-0.8,0-1.5-0.1-2.1-0.4c-0.6-0.3-1.1-0.6-1.6-1c-0.4-0.4-0.8-1-1-1.6
		c-0.2-0.6-0.4-1.3-0.4-2v-0.1c0-0.7,0.1-1.4,0.4-2c0.3-0.6,0.6-1.1,1.1-1.6c0.4-0.4,1-0.8,1.6-1c0.6-0.2,1.3-0.4,2-0.4
		c0.7,0,1.4,0.1,2,0.4c0.6,0.2,1.1,0.6,1.6,1c0.4,0.4,0.8,1,1,1.6c0.3,0.6,0.4,1.3,0.4,2v0.1c0,0.7-0.1,1.4-0.4,2
		c-0.2,0.6-0.6,1.1-1,1.6c-0.4,0.4-1,0.8-1.6,1C95.9,29.1,95.2,29.2,94.4,29.2 M104.7,27.7c0.5,0,1-0.2,1.3-0.5
		c0.3-0.4,0.4-0.9,0.4-1.6v-0.1c0-0.7-0.2-1.3-0.5-1.6c-0.3-0.4-0.7-0.5-1.2-0.5c-0.5,0-0.9,0.2-1.3,0.5c-0.3,0.4-0.5,0.9-0.5,1.6
		v0.1c0,0.7,0.2,1.3,0.5,1.6C103.8,27.5,104.2,27.7,104.7,27.7z M101.1,21.9h2V23c0.2-0.3,0.5-0.6,0.9-0.9c0.4-0.3,0.9-0.4,1.4-0.4
		c0.4,0,0.8,0.1,1.2,0.2c0.4,0.2,0.7,0.4,1,0.7c0.3,0.3,0.5,0.7,0.7,1.1c0.2,0.5,0.2,1,0.2,1.6v0.1c0,0.6-0.1,1.1-0.2,1.6
		c-0.2,0.5-0.4,0.8-0.6,1.1c-0.3,0.3-0.6,0.6-1,0.7c-0.4,0.2-0.8,0.2-1.2,0.2c-0.6,0-1-0.1-1.4-0.4c-0.4-0.2-0.7-0.5-0.9-0.9v3.5h-2
		V21.9z M114.7,24.7c0-0.5-0.2-0.9-0.5-1.2c-0.3-0.3-0.6-0.4-1.1-0.4c-0.4,0-0.8,0.1-1.1,0.4c-0.3,0.3-0.5,0.7-0.5,1.2H114.7z
		 M113.2,29.2c-0.5,0-1-0.1-1.5-0.2c-0.5-0.2-0.8-0.4-1.2-0.7c-0.3-0.3-0.6-0.7-0.8-1.1c-0.2-0.4-0.3-1-0.3-1.5v-0.1
		c0-0.6,0.1-1.1,0.3-1.5c0.2-0.5,0.4-0.8,0.8-1.2c0.3-0.3,0.7-0.6,1.2-0.7c0.4-0.2,0.9-0.3,1.4-0.3c0.5,0,0.9,0.1,1.3,0.2
		c0.4,0.1,0.8,0.4,1.1,0.6c0.3,0.3,0.6,0.7,0.8,1.1c0.2,0.5,0.3,1,0.3,1.6v0.5h-5.2c0,0.6,0.2,1.1,0.5,1.4c0.3,0.3,0.7,0.5,1.3,0.5
		c0.5,0,0.8-0.1,1-0.3c0.2-0.2,0.4-0.4,0.4-0.7h1.9c-0.1,0.8-0.5,1.4-1.1,1.8C115,29,114.2,29.2,113.2,29.2z M118.1,21.9h2v1.1
		c0.2-0.4,0.5-0.7,0.8-0.9c0.4-0.3,0.9-0.4,1.5-0.4c0.4,0,0.7,0.1,1,0.2c0.3,0.1,0.5,0.3,0.8,0.5c0.2,0.2,0.4,0.5,0.5,0.9
		c0.1,0.4,0.2,0.8,0.2,1.2v4.5h-2v-4.3c0-0.5-0.1-0.9-0.3-1.1c-0.2-0.2-0.5-0.3-1-0.3c-0.4,0-0.8,0.1-1.1,0.4
		c-0.3,0.3-0.4,0.7-0.4,1.2v4.1h-2V21.9z M130.3,29.2c-0.7,0-1.3-0.1-1.7-0.2c-0.5-0.2-0.9-0.4-1.2-0.6c-0.3-0.3-0.6-0.6-0.8-1
		c-0.2-0.4-0.3-0.8-0.3-1.3h2.1c0,0.2,0.1,0.4,0.1,0.6c0.1,0.2,0.2,0.4,0.3,0.5c0.1,0.1,0.3,0.3,0.6,0.3c0.2,0.1,0.5,0.1,0.9,0.1
		c0.5,0,0.9-0.1,1.2-0.4c0.3-0.2,0.4-0.6,0.4-0.9c0-0.2,0-0.4-0.1-0.5c-0.1-0.1-0.2-0.3-0.3-0.4c-0.1-0.1-0.3-0.2-0.6-0.2
		c-0.2-0.1-0.5-0.1-0.9-0.2c-0.6-0.1-1.2-0.2-1.6-0.3c-0.4-0.1-0.8-0.3-1.1-0.6c-0.3-0.2-0.5-0.5-0.6-0.8c-0.1-0.3-0.2-0.7-0.2-1.2
		c0-0.4,0.1-0.8,0.3-1.2c0.2-0.4,0.4-0.7,0.7-0.9c0.3-0.3,0.7-0.5,1.1-0.6c0.4-0.1,0.9-0.2,1.5-0.2c1.1,0,2,0.2,2.6,0.7
		c0.6,0.5,1,1.2,1.1,2.2h-2c-0.1-0.4-0.2-0.8-0.5-1c-0.3-0.2-0.6-0.3-1.1-0.3c-0.5,0-0.9,0.1-1.1,0.3c-0.2,0.2-0.4,0.5-0.4,0.8
		c0,0.2,0,0.3,0.1,0.5c0,0.1,0.1,0.2,0.3,0.3c0.1,0.1,0.3,0.2,0.5,0.3c0.2,0.1,0.5,0.1,0.9,0.2c0.6,0.1,1.1,0.2,1.6,0.3
		c0.4,0.1,0.8,0.3,1.1,0.5c0.3,0.2,0.5,0.5,0.7,0.9c0.2,0.3,0.2,0.8,0.2,1.3c0,0.4-0.1,0.8-0.3,1.2c-0.2,0.4-0.4,0.7-0.7,1
		c-0.3,0.3-0.7,0.5-1.2,0.7C131.4,29.1,130.9,29.2,130.3,29.2 M138.2,29.2c-0.8,0-1.3-0.2-1.7-0.6c-0.4-0.4-0.6-0.9-0.6-1.7v-3.6
		H135v-1.4h0.9v-1.5h2v1.5h1.5v1.4h-1.5v3.4c0,0.3,0.1,0.5,0.2,0.6c0.1,0.1,0.3,0.2,0.6,0.2c0.1,0,0.3,0,0.4,0
		c0.1,0,0.2-0.1,0.3-0.1V29c-0.1,0-0.3,0.1-0.5,0.1C138.7,29.2,138.5,29.2,138.2,29.2 M140.9,21.9h2v1.4c0.2-0.5,0.5-0.8,0.9-1.1
		c0.4-0.2,0.8-0.4,1.4-0.4v1.8c-0.7,0-1.3,0.1-1.7,0.4c-0.4,0.3-0.6,0.8-0.6,1.4v3.6h-2V21.9z M151.3,24.7c0-0.5-0.2-0.9-0.5-1.2
		c-0.3-0.3-0.6-0.4-1.1-0.4c-0.4,0-0.8,0.1-1.1,0.4c-0.3,0.3-0.5,0.7-0.5,1.2H151.3z M149.8,29.2c-0.5,0-1-0.1-1.5-0.2
		c-0.5-0.2-0.8-0.4-1.2-0.7c-0.3-0.3-0.6-0.7-0.8-1.1c-0.2-0.4-0.3-1-0.3-1.5v-0.1c0-0.6,0.1-1.1,0.3-1.5c0.2-0.5,0.4-0.8,0.8-1.2
		c0.3-0.3,0.7-0.6,1.2-0.7c0.4-0.2,0.9-0.3,1.4-0.3c0.5,0,0.9,0.1,1.3,0.2c0.4,0.1,0.8,0.4,1.1,0.6c0.3,0.3,0.6,0.7,0.8,1.1
		c0.2,0.5,0.3,1,0.3,1.6v0.5h-5.2c0,0.6,0.2,1.1,0.5,1.4c0.3,0.3,0.7,0.5,1.3,0.5c0.5,0,0.8-0.1,1-0.3c0.2-0.2,0.4-0.4,0.4-0.7h1.9
		c-0.1,0.8-0.5,1.4-1.1,1.8C151.6,29,150.8,29.2,149.8,29.2z M159.5,24.7c0-0.5-0.2-0.9-0.5-1.2c-0.3-0.3-0.6-0.4-1.1-0.4
		c-0.4,0-0.8,0.1-1.1,0.4c-0.3,0.3-0.5,0.7-0.5,1.2H159.5z M158,29.2c-0.5,0-1-0.1-1.5-0.2c-0.5-0.2-0.8-0.4-1.2-0.7
		c-0.3-0.3-0.6-0.7-0.8-1.1c-0.2-0.4-0.3-1-0.3-1.5v-0.1c0-0.6,0.1-1.1,0.3-1.5c0.2-0.5,0.4-0.8,0.8-1.2c0.3-0.3,0.7-0.6,1.2-0.7
		c0.4-0.2,0.9-0.3,1.4-0.3c0.5,0,0.9,0.1,1.3,0.2c0.4,0.1,0.8,0.4,1.1,0.6c0.3,0.3,0.6,0.7,0.8,1.1c0.2,0.5,0.3,1,0.3,1.6v0.5h-5.2
		c0,0.6,0.2,1.1,0.5,1.4c0.3,0.3,0.7,0.5,1.3,0.5c0.5,0,0.8-0.1,1-0.3c0.2-0.2,0.4-0.4,0.4-0.7h1.9c-0.1,0.8-0.5,1.4-1.1,1.8
		C159.8,29,159,29.2,158,29.2z M165.5,29.2c-0.8,0-1.3-0.2-1.7-0.6c-0.4-0.4-0.6-0.9-0.6-1.7v-3.6h-0.9v-1.4h0.9v-1.5h2v1.5h1.5v1.4
		h-1.5v3.4c0,0.3,0.1,0.5,0.2,0.6c0.1,0.1,0.3,0.2,0.6,0.2c0.1,0,0.3,0,0.4,0c0.1,0,0.2-0.1,0.3-0.1V29c-0.1,0-0.3,0.1-0.5,0.1
		C166,29.2,165.8,29.2,165.5,29.2"/>
	<polygon class="st0" points="168.4,19.3 171.3,19.3 173.6,25.4 175.8,19.3 178.7,19.3 178.7,29.1 176.5,29.1 176.5,22.2 
		173.8,29.1 173.1,29.1 170.4,22.2 170.4,29.1 168.4,29.1 	"/>
	<path class="st0" d="M183.3,27.8c0.4,0,0.8-0.1,1.1-0.3c0.3-0.2,0.4-0.5,0.4-0.9V26H184c-0.6,0-1,0.1-1.3,0.2
		c-0.3,0.1-0.5,0.4-0.5,0.8c0,0.3,0.1,0.5,0.2,0.6C182.6,27.8,182.9,27.8,183.3,27.8 M182.7,29.2c-0.3,0-0.6,0-0.9-0.1
		c-0.3-0.1-0.5-0.2-0.8-0.4s-0.4-0.4-0.5-0.7c-0.1-0.3-0.2-0.6-0.2-1c0-0.4,0.1-0.8,0.3-1.1c0.2-0.3,0.4-0.5,0.8-0.7
		c0.3-0.2,0.7-0.3,1.2-0.4c0.5-0.1,1-0.1,1.5-0.1h0.8v-0.3c0-0.4-0.1-0.8-0.2-1s-0.5-0.3-0.9-0.3c-0.4,0-0.7,0.1-0.9,0.3
		c-0.2,0.2-0.3,0.4-0.3,0.7h-1.9c0-0.4,0.1-0.8,0.3-1.1c0.2-0.3,0.4-0.6,0.7-0.8c0.3-0.2,0.6-0.3,1-0.4c0.4-0.1,0.8-0.1,1.2-0.1
		c0.4,0,0.8,0,1.2,0.1c0.4,0.1,0.7,0.2,1,0.5c0.3,0.2,0.5,0.5,0.6,0.8c0.1,0.3,0.2,0.7,0.2,1.2v4.7h-1.9v-0.9
		c-0.2,0.3-0.5,0.5-0.8,0.7C183.7,29.1,183.2,29.2,182.7,29.2 M192.3,27.7c0.5,0,1-0.2,1.3-0.5c0.3-0.4,0.4-0.9,0.4-1.6v-0.1
		c0-0.7-0.2-1.3-0.5-1.6c-0.3-0.4-0.7-0.5-1.2-0.5c-0.5,0-0.9,0.2-1.3,0.5c-0.3,0.4-0.5,0.9-0.5,1.6v0.1c0,0.7,0.2,1.3,0.5,1.6
		C191.3,27.5,191.8,27.7,192.3,27.7z M188.6,21.9h2V23c0.2-0.3,0.5-0.6,0.9-0.9c0.4-0.3,0.9-0.4,1.4-0.4c0.4,0,0.8,0.1,1.2,0.2
		c0.4,0.2,0.7,0.4,1,0.7c0.3,0.3,0.5,0.7,0.7,1.1c0.2,0.5,0.2,1,0.2,1.6v0.1c0,0.6-0.1,1.1-0.2,1.6c-0.2,0.5-0.4,0.8-0.6,1.1
		c-0.3,0.3-0.6,0.6-1,0.7c-0.4,0.2-0.8,0.2-1.2,0.2c-0.6,0-1-0.1-1.4-0.4c-0.4-0.2-0.7-0.5-0.9-0.9v3.5h-2V21.9z"/>
	<polygon class="st0" points="93.1,39.8 90.5,39.8 90.5,38.1 98,38.1 98,39.8 95.4,39.8 95.4,47.8 93.1,47.8 	"/>
	<path class="st0" d="M103.1,43.5c0-0.5-0.2-0.9-0.5-1.2c-0.3-0.3-0.6-0.4-1.1-0.4c-0.4,0-0.8,0.1-1.1,0.4c-0.3,0.3-0.5,0.7-0.5,1.2
		H103.1z M101.6,48c-0.5,0-1-0.1-1.5-0.2c-0.5-0.2-0.8-0.4-1.2-0.7c-0.3-0.3-0.6-0.7-0.8-1.1c-0.2-0.4-0.3-1-0.3-1.5v-0.1
		c0-0.6,0.1-1.1,0.3-1.5c0.2-0.5,0.4-0.8,0.8-1.2c0.3-0.3,0.7-0.6,1.2-0.7c0.4-0.2,0.9-0.3,1.4-0.3c0.5,0,0.9,0.1,1.3,0.2
		c0.4,0.1,0.8,0.4,1.1,0.6c0.3,0.3,0.6,0.7,0.8,1.1c0.2,0.5,0.3,1,0.3,1.6v0.5h-5.2c0,0.6,0.2,1.1,0.5,1.4s0.7,0.5,1.3,0.5
		c0.5,0,0.8-0.1,1-0.3c0.2-0.2,0.4-0.4,0.4-0.7h1.9c-0.1,0.8-0.5,1.4-1.1,1.8C103.4,47.8,102.6,48,101.6,48z M109.1,46.6
		c0.4,0,0.8-0.1,1.1-0.3c0.3-0.2,0.4-0.5,0.4-0.9v-0.6h-0.8c-0.6,0-1,0.1-1.3,0.2c-0.3,0.1-0.5,0.4-0.5,0.8c0,0.3,0.1,0.5,0.2,0.6
		C108.5,46.6,108.7,46.6,109.1,46.6 M108.5,48c-0.3,0-0.6,0-0.9-0.1c-0.3-0.1-0.5-0.2-0.8-0.4c-0.2-0.2-0.4-0.4-0.5-0.7
		c-0.1-0.3-0.2-0.6-0.2-1c0-0.4,0.1-0.8,0.3-1.1c0.2-0.3,0.4-0.5,0.8-0.7c0.3-0.2,0.7-0.3,1.2-0.4c0.5-0.1,1-0.1,1.5-0.1h0.8v-0.3
		c0-0.4-0.1-0.8-0.2-1c-0.2-0.2-0.5-0.3-0.9-0.3c-0.4,0-0.7,0.1-0.9,0.3c-0.2,0.2-0.3,0.4-0.3,0.7h-1.9c0-0.4,0.1-0.8,0.3-1.1
		c0.2-0.3,0.4-0.6,0.7-0.8c0.3-0.2,0.6-0.3,1-0.4c0.4-0.1,0.8-0.1,1.2-0.1c0.4,0,0.8,0,1.2,0.1c0.4,0.1,0.7,0.2,1,0.5
		c0.3,0.2,0.5,0.5,0.6,0.8c0.1,0.3,0.2,0.7,0.2,1.2v4.7h-1.9V47c-0.2,0.3-0.5,0.5-0.8,0.7C109.5,47.9,109.1,48,108.5,48 M114.5,40.7
		h2v1.1c0.2-0.3,0.5-0.6,0.8-0.9c0.4-0.3,0.8-0.4,1.4-0.4c0.5,0,0.9,0.1,1.2,0.3c0.3,0.2,0.6,0.5,0.8,0.9c0.3-0.4,0.7-0.8,1.1-1
		c0.4-0.2,0.9-0.3,1.3-0.3c0.3,0,0.6,0.1,0.9,0.2c0.3,0.1,0.5,0.3,0.8,0.5c0.2,0.2,0.4,0.5,0.5,0.9c0.1,0.3,0.2,0.8,0.2,1.2v4.6h-2
		v-4.4c0-0.5-0.1-0.8-0.3-1s-0.5-0.3-0.8-0.3c-0.4,0-0.7,0.1-1,0.4c-0.3,0.2-0.4,0.6-0.4,1.1v4.2h-2v-4.4c0-0.5-0.1-0.8-0.3-1
		c-0.2-0.2-0.5-0.3-0.8-0.3c-0.4,0-0.7,0.1-1,0.4c-0.3,0.2-0.4,0.6-0.4,1.1v4.2h-2V40.7z"/>
</g>
<g>
	<path class="st0" d="M37,20.8c0-0.5,0.1-0.9,0.3-1.3c0.2-0.4,0.5-0.7,0.8-0.9c0.3-0.2,0.7-0.4,1.1-0.6c0.4-0.1,0.8-0.2,1.3-0.2
		c0.4,0,0.8,0.1,1.3,0.2c0.4,0.1,0.8,0.3,1.1,0.6c0.3,0.2,0.6,0.5,0.8,0.9c0.2,0.4,0.3,0.8,0.3,1.3v6.4c0,0.5-0.1,0.9-0.3,1.3
		c-0.2,0.4-0.5,0.7-0.8,0.9c-0.3,0.2-0.7,0.4-1.1,0.6c-0.4,0.1-0.8,0.2-1.3,0.2c-0.4,0-0.8-0.1-1.3-0.2c-0.4-0.1-0.8-0.3-1.1-0.6
		c-0.3-0.2-0.6-0.5-0.8-0.9c-0.2-0.4-0.3-0.8-0.3-1.3V20.8z M39.1,27.1c0,0.4,0.2,0.7,0.5,0.9c0.3,0.2,0.6,0.3,1,0.3
		c0.4,0,0.7-0.1,1-0.3c0.3-0.2,0.4-0.5,0.4-0.9v-6.4c0-0.4-0.2-0.7-0.4-0.9c-0.3-0.2-0.6-0.3-1-0.3c-0.4,0-0.7,0.1-1,0.3
		c-0.3,0.2-0.5,0.5-0.5,0.9V27.1z"/>
	<polygon class="st0" points="33.4,17.8 33.4,23 30.2,23 30.2,17.8 28.4,17.8 28.4,30.1 30.2,30.1 30.2,24.9 33.4,24.9 33.4,30.1 
		35.3,30.1 35.3,17.8 	"/>
	<polygon class="st0" points="52.4,17.8 45.4,17.8 45.4,19.6 48,19.6 48,30.1 49.8,30.1 49.8,19.6 52.4,19.6 	"/>
	<path class="st0" d="M65.4,28.8h14.3l-8.5-9.6l-8.5-9.6L54.2,0H11.5L20,9.6H5.7l8.5,9.6l0.1,0.1H0l8.5,9.6l8.5,9.6l8.5,9.6h42.6
		l-8.5-9.6l-0.1-0.1h14.3L65.4,28.8z M39.8,39.9c-9.5,0-17.2-7.1-17.2-15.9c0-8.8,7.7-16,17.2-16c9.5,0,17.2,7.1,17.2,16
		C57.1,32.8,49.4,39.9,39.8,39.9z"/>
</g>
</svg>
