<svg width="512" height="512" viewBox="0 0 512 512" fill="none" xmlns="http://www.w3.org/2000/svg">
<g clip-path="url(#clip0_1602_1732)">
<path d="M512 0H0V512H512V0Z" fill="#051626"/>
<path d="M220.461 116.055L158.052 184.063C157.596 184.55 157.004 184.89 156.352 185.037C155.701 185.185 155.02 185.134 154.398 184.891C153.776 184.648 153.241 184.224 152.862 183.674C152.483 183.124 152.278 182.473 152.272 181.805V120.119C152.272 117.724 151.321 115.427 149.627 113.733C147.933 112.039 145.636 111.088 143.241 111.088H128.7C126.304 111.088 124.007 112.039 122.314 113.733C120.62 115.427 119.668 117.724 119.668 120.119V272.031C119.668 274.426 120.62 276.723 122.314 278.417C124.007 280.111 126.304 281.062 128.7 281.062H142.97C145.365 281.062 147.662 280.111 149.356 278.417C151.05 276.723 152.001 274.426 152.001 272.031V238.794C152.418 236.414 153.309 234.141 154.62 232.111C156.358 230.148 158.492 228.577 160.882 227.501C163.272 226.425 165.863 225.868 168.484 225.868C171.105 225.868 173.696 226.425 176.086 227.501C178.476 228.577 180.61 230.148 182.347 232.111L220.28 275.463C221.803 277.166 223.668 278.528 225.754 279.462C227.839 280.396 230.098 280.879 232.382 280.882H251.349C252.465 280.8 253.54 280.427 254.467 279.801C255.394 279.175 256.142 278.317 256.635 277.312C257.128 276.308 257.35 275.192 257.278 274.075C257.206 272.958 256.843 271.88 256.226 270.947L191.018 199.597C190.148 198.648 189.666 197.407 189.666 196.12C189.666 194.833 190.148 193.592 191.018 192.643L256.226 121.565C257.066 120.649 257.621 119.509 257.826 118.284C258.03 117.059 257.874 115.8 257.377 114.662C256.879 113.523 256.062 112.554 255.024 111.871C253.986 111.189 252.772 110.822 251.529 110.817H232.292C230.064 110.817 227.86 111.283 225.823 112.186C223.785 113.088 221.959 114.406 220.461 116.055Z" fill="white"/>
<path d="M365.417 117.41V371.468C365.43 371.804 365.373 372.138 365.251 372.451C365.128 372.763 364.942 373.047 364.705 373.285C364.468 373.522 364.184 373.708 363.871 373.831C363.559 373.953 363.224 374.01 362.889 373.997H125.81C124.109 373.997 122.478 374.673 121.275 375.875C120.073 377.078 119.397 378.709 119.397 380.41V394.77C119.397 396.471 120.073 398.102 121.275 399.304C122.478 400.507 124.109 401.182 125.81 401.182H386.19C387.032 401.182 387.866 401.016 388.644 400.694C389.422 400.372 390.129 399.9 390.724 399.304C391.32 398.709 391.792 398.002 392.114 397.224C392.437 396.446 392.603 395.612 392.603 394.77V117.41C392.603 116.568 392.437 115.734 392.114 114.956C391.792 114.178 391.32 113.471 390.724 112.876C390.129 112.28 389.422 111.808 388.644 111.486C387.866 111.164 387.032 110.998 386.19 110.998H371.83C370.988 110.998 370.154 111.164 369.376 111.486C368.598 111.808 367.891 112.28 367.296 112.876C366.7 113.471 366.228 114.178 365.906 114.956C365.583 115.734 365.417 116.568 365.417 117.41V117.41Z" fill="white"/>
</g>
<defs>
<clipPath id="clip0_1602_1732">
<rect width="512" height="512" fill="white"/>
</clipPath>
</defs>
</svg>
