<?xml version="1.0" encoding="utf-8"?>
<!-- Generator: Adobe Illustrator 24.0.1, SVG Export Plug-In . SVG Version: 6.00 Build 0)  -->
<svg version="1.1" id="oam-logo-h-pos" xmlns="http://www.w3.org/2000/svg" xmlns:xlink="http://www.w3.org/1999/xlink" x="0px"
	 y="0px" viewBox="0 0 160 160" style="enable-background:new 0 0 160 160;" xml:space="preserve">
<style type="text/css">
	.st0{fill:#FFFFFF;}
	.st1{fill:#E4E8E9;}
	.st2{fill:#68C39F;}
	.st3{fill:#449BB5;}
	.st4{fill:#B8C1C4;}
	.st5{fill:#D2D8DA;}
	.st6{fill:#DBE0E1;}
	.st7{fill:#EDEFF0;}
</style>
<g>
	<path class="st0" d="M0,112L80,0l80,112l-16,48l-32-8l-32-24l-32,24l-32,8L0,112z"/>
	<path class="st1" d="M40,128v26l8-2l5.1-24H40z M56.4,112L80,0L40,56v56H56.4z"/>
	<path class="st2" d="M160,112l-40-56v56H160z"/>
	<path class="st1" d="M103.6,112h0.4V33.6L80,0L103.6,112z"/>
	<path class="st3" d="M0,112l16,48l8-2V78.4L0,112z"/>
	<path class="st1" d="M112,152l32,8l10.7-32h-47.8L112,152L112,152z"/>
	<path class="st4" d="M53.1,128L48,152l32-24v-16L53.1,128z M80,96V0L56.4,112L80,96z"/>
	<path class="st5" d="M103.6,112L80,0v96L103.6,112z M106.9,128L80,112v16l32,24L106.9,128z"/>
	<path class="st6" d="M56.4,112l-3.3,16L80,112V96L56.4,112z"/>
	<path class="st0" d="M53.1,128l3.3-16H40V56L24,78.4V158l16-4v-26H53.1z M53.1,128l2.9-14L53.1,128z M160,112h-40V56l-16-22.4V112
		h-0.4l3.3,16h47.8L160,112z M106.9,128l-2.9-14L106.9,128z"/>
	<path class="st7" d="M80,96v16l26.9,16l-3.3-16L80,96z"/>
</g>
</svg>
