<?xml version="1.0" standalone="no"?>
<!DOCTYPE svg PUBLIC "-//W3C//DTD SVG 20010904//EN"
 "http://www.w3.org/TR/2001/REC-SVG-20010904/DTD/svg10.dtd">
<svg version="1.0" xmlns="http://www.w3.org/2000/svg"
 width="700.000000pt" height="700.000000pt" viewBox="0 0 700.000000 700.000000"
 preserveAspectRatio="xMidYMid meet">
<metadata>
Created by potrace 1.14, written by Peter Selinger 2001-2017
</metadata>
<g transform="translate(0.000000,700.000000) scale(0.100000,-0.100000)"
fill="#000000" stroke="none">
<path d="M3250 6774 c-19 -2 -80 -9 -135 -15 -223 -23 -523 -95 -755 -181
-804 -299 -1461 -902 -1829 -1680 -144 -304 -238 -624 -288 -979 -22 -156 -25
-639 -5 -799 129 -1036 716 -1929 1615 -2459 363 -213 774 -353 1228 -418 177
-25 661 -25 839 0 745 106 1390 426 1906 943 733 737 1072 1772 919 2807 -101
680 -433 1336 -925 1827 -513 512 -1161 833 -1891 935 -108 16 -594 29 -679
19z m739 -1910 c1140 -109 2083 -575 2504 -1236 l36 -57 -58 -88 c-398 -605
-1280 -1058 -2311 -1187 -254 -32 -402 -38 -735 -33 -343 5 -476 16 -745 62
-642 108 -1210 336 -1637 657 -117 87 -302 264 -386 368 -72 89 -147 203 -147
222 0 8 27 54 60 102 462 677 1473 1135 2663 1206 184 11 559 3 756 -16z"/>
<path d="M1588 3918 c-8 -32 -13 -107 -13 -188 0 -114 4 -147 23 -210 94 -297
330 -517 639 -596 243 -61 482 -33 703 82 78 41 230 155 230 172 0 6 -1550
792 -1563 792 -3 0 -11 -24 -19 -52z"/>
<path d="M5070 3824 c-157 -80 -504 -256 -772 -391 -269 -134 -488 -250 -487
-256 0 -7 27 -34 60 -62 366 -309 932 -293 1273 34 124 120 197 243 237 400
18 72 20 104 16 215 -4 123 -19 206 -35 206 -4 0 -135 -66 -292 -146z"/>
</g>
</svg>
