<svg width="16" height="16" viewBox="0 0 16 16" fill="none" xmlns="http://www.w3.org/2000/svg">
<rect width="16" height="16" rx="2" fill="white"/>
<path fill-rule="evenodd" clip-rule="evenodd" d="M5.11035 9.63392C5.11035 8.03855 6.4044 6.74451 7.99976 6.74451C9.59513 6.74451 10.8892 8.03855 10.8892 9.63392C10.8892 11.801 7.99976 15 7.99976 15C7.99976 15 5.11035 11.801 5.11035 9.63392ZM8 10.6863C8.62132 10.6863 9.125 10.1826 9.125 9.56128C9.125 8.93996 8.62132 8.43628 8 8.43628C7.37868 8.43628 6.875 8.93996 6.875 9.56128C6.875 10.1826 7.37868 10.6863 8 10.6863Z" fill="#2E3D4A"/>
<path d="M5.76072 6.19037C6.40199 5.69228 7.18104 5.38945 8.00031 5.38945C8.81954 5.38945 9.59856 5.69226 10.2398 6.19031L11.3076 5.12249C10.3963 4.36157 9.24801 3.88945 8.00031 3.88945C6.75257 3.88945 5.60429 4.36159 4.69291 5.12255L5.76072 6.19037Z" fill="#2E3D4A"/>
<path d="M12.2635 4.1666L13.3269 3.10326C11.8892 1.81226 10.0304 1 8.00046 1C5.97043 1 4.11154 1.81235 2.67383 3.10347L3.73716 4.16681C4.91027 3.14008 6.40219 2.5 8.00046 2.5C9.59862 2.5 11.0904 3.13999 12.2635 4.1666Z" fill="#2E3D4A"/>
</svg>
