<?xml version="1.0" encoding="utf-8"?>
<!-- Generator: Adobe Illustrator 24.0.1, SVG Export Plug-In . SVG Version: 6.00 Build 0)  -->
<svg version="1.1" id="Layer_1" xmlns="http://www.w3.org/2000/svg" xmlns:xlink="http://www.w3.org/1999/xlink" x="0px" y="0px"
	 viewBox="0 0 24 24" style="enable-background:new 0 0 24 24;" xml:space="preserve">
<style type="text/css">
	.st0{fill:#FFFFFF;}
	.st1{fill-rule:evenodd;clip-rule:evenodd;fill:#FFFFFF;}
</style>
<g>
	<path class="st0" d="M12,7c-1.9,0-3.5,1.6-3.5,3.5C8.5,13.1,12,17,12,17s3.5-3.9,3.5-6.5C15.5,8.5,13.9,7,12,7z M12,12
		c-0.8,0-1.5-0.7-1.5-1.5C10.5,9.7,11.2,9,12,9s1.5,0.7,1.5,1.5C13.5,11.3,12.8,12,12,12z"/>
	<path class="st1" d="M9.1,6.1C9.9,5.4,10.9,5,12,5c1.1,0,2.1,0.4,2.9,1.1L16,5c-1.1-0.9-2.5-1.5-4-1.5c-1.5,0-2.9,0.6-4,1.5
		L9.1,6.1z M17.4,3.6l1.1-1.1C16.7,1,14.5,0,12,0C9.5,0,7.3,1,5.5,2.5l1.1,1.1C8.1,2.3,10,1.5,12,1.5C14,1.5,15.9,2.3,17.4,3.6z"/>
	<path class="st1" d="M15.5,14.7c-0.2,0.4-0.4,0.7-0.7,1l2.2,1.1l-1.4,0.7l-1.6-0.8c-0.3,0.4-0.6,0.7-0.8,1l1,0.5l-1.9,0.9l-5.1-2.5
		l1.8-0.9c-0.2-0.3-0.4-0.7-0.7-1L1,18.5L12,24l11-5.5L15.5,14.7z M3.7,18.5L6,17.3l5.1,2.5L8.8,21L3.7,18.5z M12,22.7l-1.9-1
		l2.3-1.2l1.9,0.9L12,22.7z M15.7,20.8l-1.9-0.9l1.9-0.9l1.9,0.9L15.7,20.8z M18.9,19.2L17,18.3l1.4-0.7l1.9,1L18.9,19.2z"/>
</g>
</svg>
