<svg width="23" height="21" viewBox="0 0 23 21" fill="none" xmlns="http://www.w3.org/2000/svg">
<path d="M9.73802 1.96274L1.26802 16.1027C1.09339 16.4052 1.00099 16.748 1.00001 17.0973C0.99903 17.4465 1.08951 17.7899 1.26245 18.0933C1.43538 18.3967 1.68474 18.6495 1.98573 18.8266C2.28671 19.0037 2.62882 19.0989 2.97802 19.1027H19.918C20.2672 19.0989 20.6093 19.0037 20.9103 18.8266C21.2113 18.6495 21.4607 18.3967 21.6336 18.0933C21.8065 17.7899 21.897 17.4465 21.896 17.0973C21.8951 16.748 21.8027 16.4052 21.628 16.1027L13.158 1.96274C12.9797 1.66885 12.7287 1.42586 12.4292 1.25723C12.1297 1.08859 11.7918 1 11.448 1C11.1043 1 10.7663 1.08859 10.4668 1.25723C10.1673 1.42586 9.91629 1.66885 9.73802 1.96274V1.96274Z" stroke="#F0F1F2" stroke-width="2" stroke-linecap="round" stroke-linejoin="round"/>
<path d="M11.448 7.10278V11.1028" stroke="#F0F1F2" stroke-width="2" stroke-linecap="round" stroke-linejoin="round"/>
<path d="M11.448 15.1028H11.458" stroke="#F0F1F2" stroke-width="2" stroke-linecap="round" stroke-linejoin="round"/>
</svg>
