<svg width="16" height="16" viewBox="0 0 16 16" fill="none" xmlns="http://www.w3.org/2000/svg">
<path d="M14 11.1971L10.9999 8.44109L4.99967 8.44109L1.99956 11.1971L4.99967 13.9531L10.9999 13.9531L14 11.1971Z" fill="#40AD5A"/>
<path d="M14 11.1971L10.9999 8.44109L4.99967 8.44109L1.99956 11.1971L4.99967 13.9531L10.9999 13.9531L14 11.1971Z" fill="#40AD5A"/>
<path d="M11.001 13.7539L11.001 14L5.00076 14L5.00075 13.4094L5.00076 12.7204L11.001 12.7204L11.001 13.7539Z" fill="#40AD5A"/>
<path d="M5 14L1.99989 11.4695L1.99989 10.4782L5 12.9544L5 14Z" fill="#53C66F"/>
<path d="M11.001 14L14.0011 11.4695L14.0011 10.4782L11.001 12.9544L11.001 14Z" fill="#267D3B"/>
<path d="M14 10.4768L10.9999 8.00056L4.99966 8.00056L1.99954 10.4768L4.99966 12.9531L10.9999 12.9531L14 10.4768Z" fill="#61D77D"/>
</svg>
