<svg width="16" height="16" viewBox="0 0 16 16" fill="none" xmlns="http://www.w3.org/2000/svg">
<path d="M13.999 11.1629L10.9992 8.38049L4.99947 8.38049L1.99962 11.1629L4.99947 13.9453L10.9992 13.9453L13.999 11.1629Z" fill="#40AD5A"/>
<path d="M13.999 11.1629L10.9992 8.38049L4.99947 8.38049L1.99962 11.1629L4.99947 13.9453L10.9992 13.9453L13.999 11.1629Z" fill="#40AD5A"/>
<path d="M11 12.6538L11 14L4.99949 14L4.99949 10.7692L4.99949 10L11 10L11 12.6538Z" fill="#40AD5A"/>
<path d="M5.00097 14L2.00072 11.4453L2.00072 7.5L5.00098 10L5.00097 14Z" fill="#53C66F"/>
<path d="M11 14L14.0003 11.4453L14.0003 7.5L11 10L11 14Z" fill="#267D3B"/>
<path d="M13.999 7.5L10.9992 5L4.99946 5L1.9996 7.5L4.99946 10L10.9992 10L13.999 7.5Z" fill="#61D77D"/>
</svg>
