<svg width="12" height="12" viewBox="0 0 12 12" fill="none" xmlns="http://www.w3.org/2000/svg">
<path d="M0 0H12V3.08508H10.769V2.53835C10.769 2.18038 10.6462 1.87773 10.4006 1.6304C10.1551 1.37657 9.84814 1.2464 9.47981 1.23989H7.89015C7.72213 1.2464 7.57997 1.30823 7.46365 1.42538C7.34733 1.54254 7.28918 1.68247 7.28918 1.84519V10.145C7.32149 10.516 7.51858 10.7211 7.88045 10.7601L8.45234 10.7113V12H3.54766V10.7113L4.11955 10.7601C4.28756 10.7536 4.42649 10.6918 4.53635 10.5746C4.65267 10.4575 4.71082 10.3175 4.71082 10.1548V1.82566C4.66559 1.46769 4.46527 1.27243 4.10985 1.23989H2.52019C2.15186 1.2464 1.84491 1.37657 1.59935 1.6304C1.3538 1.87773 1.23102 2.18038 1.23102 2.53835V3.08508H0V0Z" fill="currentColor"/>
</svg>
